<svg width="30" height="16" viewBox="0 0 30 16" fill="none" xmlns="http://www.w3.org/2000/svg">
<path d="M29.6563 7.17048C29.6559 7.17013 29.6556 7.16972 29.6552 7.16937L23.532 1.07562C23.0732 0.619117 22.3312 0.620816 21.8746 1.0796C21.4181 1.53834 21.4198 2.28031 21.8786 2.73687L25.9897 6.82812H1.17188C0.524648 6.82812 0 7.35277 0 7.99999C0 8.64722 0.524648 9.17187 1.17188 9.17187H25.9897L21.8786 13.2631C21.4199 13.7197 21.4181 14.4616 21.8747 14.9204C22.3313 15.3792 23.0733 15.3808 23.532 14.9244L29.6553 8.83062C29.6556 8.83026 29.6559 8.82985 29.6563 8.8295C30.1153 8.37142 30.1138 7.62704 29.6563 7.17048Z" fill="black"/>
</svg>
